<svg xmlns="http://www.w3.org/2000/svg" width="256" height="256" fill="none" viewBox="0 0 256 256">
  <rect width="256" height="256" fill="#2496ED" rx="60"/>
  <path fill="#fff" d="M141.187 122.133H161.92V101.4H141.187V122.133ZM116.587 122.133H137.32V101.4H116.587V122.133ZM91.987 122.133H112.72V101.4H91.987V122.133ZM67.387 122.133H88.12V101.4H67.387V122.133ZM42.787 122.133H63.52V101.4H42.787V122.133ZM67.387 97.5333H88.12V76.8H67.387V97.5333ZM91.987 97.5333H112.72V76.8H91.987V97.5333ZM116.587 97.5333H137.32V76.8H116.587V97.5333ZM91.987 72.9333H112.72V52.2H91.987V72.9333Z"/>
  <path fill="#fff" fill-rule="evenodd" d="M196.267 106.733C192.4 104.333 184.667 103.867 178.4 104.8C177.467 101.4 175.533 98.4667 172.6 96.0667L169.2 93.6L167.267 97.5333C164.8 102.8 164.333 109.533 165.733 115.333C166.2 116.733 167.133 118.6 168.533 120C165.733 121.867 159.933 122.333 158.533 122.333H28C26.1333 122.333 25.2 124.2 25.2 125.6C25.6667 134.267 27.6 142 31.4667 148.733C36.3333 157.4 43.5333 162.667 52.2 164.533C71.0667 168.867 87.7867 164.533 100.293 153.533C105.627 149.2 110.027 143.4 113.427 136.667H116.827C128.4 136.667 137.533 134.267 143.8 129.467C145.667 128.533 147.533 127.133 149.4 125.733C152.333 130.067 156.667 132.933 161.933 134.267L165.333 135.2L167.267 132.467C171.133 126.667 171.6 117.533 168.2 111.733C166.733 109.333 163.8 107.4 196.267 106.733Z" clip-rule="evenodd"/>
</svg>